<svg xmlns="http://www.w3.org/2000/svg" viewBox="0 0 2200 1600" font-family="Inter Tight, sans-serif">
<rect width="2200" height="1600" fill="#F4F1EC"/>
<text x="1100.0" y="42" text-anchor="middle" font-family="Inter Tight, sans-serif" font-size="22" font-weight="800" fill="#0A0A0B">Telsa Charging Points</text>
<text x="1100.0" y="66" text-anchor="middle" font-family="Inter Tight, sans-serif" font-size="13" fill="#9A968E">Diagramme de classes — domaine DDD, services applicatifs &amp; énumérations</text>
<line x1="120" y1="82" x2="2080" y2="82" stroke="#0A0A0B" stroke-width="0.6"/>
<g>
  <rect x="40" y="110" width="2120" height="180" rx="6" ry="6" fill="#F4F1EC" stroke="#0A0A0B" stroke-width="1.4"/>
  <rect x="40" y="110" width="200" height="26" rx="6" ry="6" fill="#EDE9E0" stroke="#0A0A0B" stroke-width="1.4"/>
  <text x="54" y="127" font-family="Inter Tight, sans-serif" font-size="12" font-weight="700" fill="#0A0A0B">Énumérations</text>
</g>
<g>
<rect x="70" y="150" width="180" height="80" fill="#FFFFFF" stroke="#0A0A0B" stroke-width="1.4"/>
<rect x="70" y="150" width="180" height="40" fill="#EDE9E0" stroke="#0A0A0B" stroke-width="1.4"/>
<text x="160.0" y="166" text-anchor="middle" font-family="Inter Tight, sans-serif" font-size="10" font-style="italic" fill="#9A968E">«enum»</text>
<text x="160.0" y="182" text-anchor="middle" font-family="Inter Tight, sans-serif" font-size="12" font-weight="700" fill="#0A0A0B">Role</text>
<text x="160.0" y="208" text-anchor="middle" font-family="JetBrains Mono, Menlo, monospace" font-size="10.5" fill="#0A0A0B">USER</text>
<text x="160.0" y="222" text-anchor="middle" font-family="JetBrains Mono, Menlo, monospace" font-size="10.5" fill="#0A0A0B">ADMIN</text>
</g>
<g>
<rect x="270" y="150" width="180" height="128" fill="#FFFFFF" stroke="#0A0A0B" stroke-width="1.4"/>
<rect x="270" y="150" width="180" height="40" fill="#EDE9E0" stroke="#0A0A0B" stroke-width="1.4"/>
<text x="360.0" y="166" text-anchor="middle" font-family="Inter Tight, sans-serif" font-size="10" font-style="italic" fill="#9A968E">«enum»</text>
<text x="360.0" y="182" text-anchor="middle" font-family="Inter Tight, sans-serif" font-size="12" font-weight="700" fill="#0A0A0B">TeslaModel</text>
<text x="360.0" y="208" text-anchor="middle" font-family="JetBrains Mono, Menlo, monospace" font-size="10.5" fill="#0A0A0B">MODEL_3</text>
<text x="360.0" y="222" text-anchor="middle" font-family="JetBrains Mono, Menlo, monospace" font-size="10.5" fill="#0A0A0B">MODEL_Y</text>
<text x="360.0" y="236" text-anchor="middle" font-family="JetBrains Mono, Menlo, monospace" font-size="10.5" fill="#0A0A0B">MODEL_S</text>
<text x="360.0" y="250" text-anchor="middle" font-family="JetBrains Mono, Menlo, monospace" font-size="10.5" fill="#0A0A0B">MODEL_X</text>
<text x="360.0" y="264" text-anchor="middle" font-family="JetBrains Mono, Menlo, monospace" font-size="10.5" fill="#0A0A0B">CYBERTRUCK</text>
</g>
<g>
<rect x="470" y="150" width="180" height="96" fill="#FFFFFF" stroke="#0A0A0B" stroke-width="1.4"/>
<rect x="470" y="150" width="180" height="40" fill="#EDE9E0" stroke="#0A0A0B" stroke-width="1.4"/>
<text x="560.0" y="166" text-anchor="middle" font-family="Inter Tight, sans-serif" font-size="10" font-style="italic" fill="#9A968E">«enum»</text>
<text x="560.0" y="182" text-anchor="middle" font-family="Inter Tight, sans-serif" font-size="12" font-weight="700" fill="#0A0A0B">PlateType</text>
<text x="560.0" y="208" text-anchor="middle" font-family="JetBrains Mono, Menlo, monospace" font-size="10.5" fill="#0A0A0B">TN</text>
<text x="560.0" y="222" text-anchor="middle" font-family="JetBrains Mono, Menlo, monospace" font-size="10.5" fill="#0A0A0B">RS</text>
<text x="560.0" y="236" text-anchor="middle" font-family="JetBrains Mono, Menlo, monospace" font-size="10.5" fill="#0A0A0B">CD</text>
</g>
<g>
<rect x="670" y="150" width="180" height="80" fill="#FFFFFF" stroke="#0A0A0B" stroke-width="1.4"/>
<rect x="670" y="150" width="180" height="40" fill="#EDE9E0" stroke="#0A0A0B" stroke-width="1.4"/>
<text x="760.0" y="166" text-anchor="middle" font-family="Inter Tight, sans-serif" font-size="10" font-style="italic" fill="#9A968E">«enum»</text>
<text x="760.0" y="182" text-anchor="middle" font-family="Inter Tight, sans-serif" font-size="12" font-weight="700" fill="#0A0A0B">VehicleOrigin</text>
<text x="760.0" y="208" text-anchor="middle" font-family="JetBrains Mono, Menlo, monospace" font-size="10.5" fill="#0A0A0B">LOCAL</text>
<text x="760.0" y="222" text-anchor="middle" font-family="JetBrains Mono, Menlo, monospace" font-size="10.5" fill="#0A0A0B">FOREIGN</text>
</g>
<g>
<rect x="870" y="150" width="180" height="128" fill="#FFFFFF" stroke="#0A0A0B" stroke-width="1.4"/>
<rect x="870" y="150" width="180" height="40" fill="#EDE9E0" stroke="#0A0A0B" stroke-width="1.4"/>
<text x="960.0" y="166" text-anchor="middle" font-family="Inter Tight, sans-serif" font-size="10" font-style="italic" fill="#9A968E">«enum»</text>
<text x="960.0" y="182" text-anchor="middle" font-family="Inter Tight, sans-serif" font-size="12" font-weight="700" fill="#0A0A0B">ChargingPortType</text>
<text x="960.0" y="208" text-anchor="middle" font-family="JetBrains Mono, Menlo, monospace" font-size="10.5" fill="#0A0A0B">NACS</text>
<text x="960.0" y="222" text-anchor="middle" font-family="JetBrains Mono, Menlo, monospace" font-size="10.5" fill="#0A0A0B">CCS1</text>
<text x="960.0" y="236" text-anchor="middle" font-family="JetBrains Mono, Menlo, monospace" font-size="10.5" fill="#0A0A0B">CCS2</text>
<text x="960.0" y="250" text-anchor="middle" font-family="JetBrains Mono, Menlo, monospace" font-size="10.5" fill="#0A0A0B">CHADEMO</text>
<text x="960.0" y="264" text-anchor="middle" font-family="JetBrains Mono, Menlo, monospace" font-size="10.5" fill="#0A0A0B">J1772</text>
</g>
<g>
<rect x="1070" y="150" width="180" height="96" fill="#FFFFFF" stroke="#0A0A0B" stroke-width="1.4"/>
<rect x="1070" y="150" width="180" height="40" fill="#EDE9E0" stroke="#0A0A0B" stroke-width="1.4"/>
<text x="1160.0" y="166" text-anchor="middle" font-family="Inter Tight, sans-serif" font-size="10" font-style="italic" fill="#9A968E">«enum»</text>
<text x="1160.0" y="182" text-anchor="middle" font-family="Inter Tight, sans-serif" font-size="12" font-weight="700" fill="#0A0A0B">PortStatus</text>
<text x="1160.0" y="208" text-anchor="middle" font-family="JetBrains Mono, Menlo, monospace" font-size="10.5" fill="#0A0A0B">AVAILABLE</text>
<text x="1160.0" y="222" text-anchor="middle" font-family="JetBrains Mono, Menlo, monospace" font-size="10.5" fill="#0A0A0B">IN_USE</text>
<text x="1160.0" y="236" text-anchor="middle" font-family="JetBrains Mono, Menlo, monospace" font-size="10.5" fill="#0A0A0B">OUT_OF_SERVICE</text>
</g>
<g>
<rect x="1270" y="150" width="180" height="96" fill="#FFFFFF" stroke="#0A0A0B" stroke-width="1.4"/>
<rect x="1270" y="150" width="180" height="40" fill="#EDE9E0" stroke="#0A0A0B" stroke-width="1.4"/>
<text x="1360.0" y="166" text-anchor="middle" font-family="Inter Tight, sans-serif" font-size="10" font-style="italic" fill="#9A968E">«enum»</text>
<text x="1360.0" y="182" text-anchor="middle" font-family="Inter Tight, sans-serif" font-size="12" font-weight="700" fill="#0A0A0B">ReviewStatus</text>
<text x="1360.0" y="208" text-anchor="middle" font-family="JetBrains Mono, Menlo, monospace" font-size="10.5" fill="#0A0A0B">PENDING</text>
<text x="1360.0" y="222" text-anchor="middle" font-family="JetBrains Mono, Menlo, monospace" font-size="10.5" fill="#0A0A0B">APPROVED</text>
<text x="1360.0" y="236" text-anchor="middle" font-family="JetBrains Mono, Menlo, monospace" font-size="10.5" fill="#0A0A0B">REJECTED</text>
</g>
<g>
  <rect x="40" y="320" width="1060" height="540" rx="6" ry="6" fill="#F4F1EC" stroke="#0A0A0B" stroke-width="1.4"/>
  <rect x="40" y="320" width="216" height="26" rx="6" ry="6" fill="#EDE9E0" stroke="#0A0A0B" stroke-width="1.4"/>
  <text x="54" y="337" font-family="Inter Tight, sans-serif" font-size="12" font-weight="700" fill="#0A0A0B">Domaine :: Identité &amp; Accès</text>
</g>
<g>
<rect x="80" y="360" width="320" height="316" fill="#FFFFFF" stroke="#0A0A0B" stroke-width="1.4"/>
<rect x="80" y="360" width="320" height="28" fill="#FBE3DC" stroke="#0A0A0B" stroke-width="1.4"/>
<text x="240.0" y="379" text-anchor="middle" font-family="Inter Tight, sans-serif" font-size="13" font-weight="800" fill="#0A0A0B">User</text>
<circle cx="386" cy="374" r="6" fill="#E34E2C" stroke="#0A0A0B" stroke-width="1"/>
<text x="386" y="378" text-anchor="middle" font-family="Inter Tight, sans-serif" font-size="9" font-weight="700" fill="#FFFFFF">A</text>
<line x1="80" y1="388" x2="400" y2="388" stroke="#0A0A0B" stroke-width="1"/>
<text x="88" y="406" font-family="JetBrains Mono, Menlo, monospace" font-size="10.5" fill="#0A0A0B">- id : UUID</text>
<text x="88" y="420" font-family="JetBrains Mono, Menlo, monospace" font-size="10.5" fill="#0A0A0B">- firstName : String</text>
<text x="88" y="434" font-family="JetBrains Mono, Menlo, monospace" font-size="10.5" fill="#0A0A0B">- lastName : String</text>
<text x="88" y="448" font-family="JetBrains Mono, Menlo, monospace" font-size="10.5" fill="#0A0A0B">- email : String</text>
<text x="88" y="462" font-family="JetBrains Mono, Menlo, monospace" font-size="10.5" fill="#0A0A0B">- passwordHash : String</text>
<text x="88" y="476" font-family="JetBrains Mono, Menlo, monospace" font-size="10.5" fill="#0A0A0B">- phoneNumber : String</text>
<text x="88" y="490" font-family="JetBrains Mono, Menlo, monospace" font-size="10.5" fill="#0A0A0B">- countryCode : String</text>
<text x="88" y="504" font-family="JetBrains Mono, Menlo, monospace" font-size="10.5" fill="#0A0A0B">- role : Role</text>
<text x="88" y="518" font-family="JetBrains Mono, Menlo, monospace" font-size="10.5" fill="#0A0A0B">- emailVerified : boolean</text>
<text x="88" y="532" font-family="JetBrains Mono, Menlo, monospace" font-size="10.5" fill="#0A0A0B">- failedAttempts : int</text>
<text x="88" y="546" font-family="JetBrains Mono, Menlo, monospace" font-size="10.5" fill="#0A0A0B">- lockedUntil : Instant</text>
<text x="88" y="560" font-family="JetBrains Mono, Menlo, monospace" font-size="10.5" fill="#0A0A0B">- createdAt / lastLoginAt : Instant</text>
<line x1="80" y1="564" x2="400" y2="564" stroke="#0A0A0B" stroke-width="1"/>
<text x="88" y="582" font-family="JetBrains Mono, Menlo, monospace" font-size="10.5" fill="#0A0A0B">+ markEmailVerified()</text>
<text x="88" y="596" font-family="JetBrains Mono, Menlo, monospace" font-size="10.5" fill="#0A0A0B">+ changePassword(raw)</text>
<text x="88" y="610" font-family="JetBrains Mono, Menlo, monospace" font-size="10.5" fill="#0A0A0B">+ registerFailedAttempt()</text>
<text x="88" y="624" font-family="JetBrains Mono, Menlo, monospace" font-size="10.5" fill="#0A0A0B">+ isLocked() : boolean</text>
<text x="88" y="638" font-family="JetBrains Mono, Menlo, monospace" font-size="10.5" fill="#0A0A0B">+ unlock()</text>
</g>
<g>
<rect x="460" y="360" width="280" height="156" fill="#FFFFFF" stroke="#0A0A0B" stroke-width="1.4"/>
<rect x="460" y="360" width="280" height="28" fill="#EDE9E0" stroke="#0A0A0B" stroke-width="1.4"/>
<text x="600.0" y="379" text-anchor="middle" font-family="Inter Tight, sans-serif" font-size="13" font-weight="700" fill="#0A0A0B">RefreshToken</text>
<line x1="460" y1="388" x2="740" y2="388" stroke="#0A0A0B" stroke-width="1"/>
<text x="468" y="406" font-family="JetBrains Mono, Menlo, monospace" font-size="10.5" fill="#0A0A0B">- id : UUID</text>
<text x="468" y="420" font-family="JetBrains Mono, Menlo, monospace" font-size="10.5" fill="#0A0A0B">- tokenHash : String  (SHA-256)</text>
<text x="468" y="434" font-family="JetBrains Mono, Menlo, monospace" font-size="10.5" fill="#0A0A0B">- expiresAt : Instant</text>
<text x="468" y="448" font-family="JetBrains Mono, Menlo, monospace" font-size="10.5" fill="#0A0A0B">- revokedAt : Instant</text>
<text x="468" y="462" font-family="JetBrains Mono, Menlo, monospace" font-size="10.5" fill="#0A0A0B">- createdAt : Instant</text>
<line x1="460" y1="466" x2="740" y2="466" stroke="#0A0A0B" stroke-width="1"/>
<text x="468" y="484" font-family="JetBrains Mono, Menlo, monospace" font-size="10.5" fill="#0A0A0B">+ isValid(now) : boolean</text>
<text x="468" y="498" font-family="JetBrains Mono, Menlo, monospace" font-size="10.5" fill="#0A0A0B">+ revoke()</text>
</g>
<g>
<rect x="460" y="545" width="280" height="172" fill="#FFFFFF" stroke="#0A0A0B" stroke-width="1.4"/>
<rect x="460" y="545" width="280" height="28" fill="#EDE9E0" stroke="#0A0A0B" stroke-width="1.4"/>
<text x="600.0" y="564" text-anchor="middle" font-family="Inter Tight, sans-serif" font-size="13" font-weight="700" fill="#0A0A0B">OtpCode</text>
<line x1="460" y1="573" x2="740" y2="573" stroke="#0A0A0B" stroke-width="1"/>
<text x="468" y="591" font-family="JetBrains Mono, Menlo, monospace" font-size="10.5" fill="#0A0A0B">- id : UUID</text>
<text x="468" y="605" font-family="JetBrains Mono, Menlo, monospace" font-size="10.5" fill="#0A0A0B">- codeHash : String</text>
<text x="468" y="619" font-family="JetBrains Mono, Menlo, monospace" font-size="10.5" fill="#0A0A0B">- expiresAt : Instant</text>
<text x="468" y="633" font-family="JetBrains Mono, Menlo, monospace" font-size="10.5" fill="#0A0A0B">- attempts : int</text>
<text x="468" y="647" font-family="JetBrains Mono, Menlo, monospace" font-size="10.5" fill="#0A0A0B">- usedAt : Instant</text>
<line x1="460" y1="651" x2="740" y2="651" stroke="#0A0A0B" stroke-width="1"/>
<text x="468" y="669" font-family="JetBrains Mono, Menlo, monospace" font-size="10.5" fill="#0A0A0B">+ verify(raw) : boolean</text>
<text x="468" y="683" font-family="JetBrains Mono, Menlo, monospace" font-size="10.5" fill="#0A0A0B">+ consume()</text>
<text x="468" y="697" font-family="JetBrains Mono, Menlo, monospace" font-size="10.5" fill="#0A0A0B">+ incrementAttempts()</text>
</g>
<g>
<rect x="460" y="720" width="280" height="140" fill="#FFFFFF" stroke="#0A0A0B" stroke-width="1.4"/>
<rect x="460" y="720" width="280" height="28" fill="#EDE9E0" stroke="#0A0A0B" stroke-width="1.4"/>
<text x="600.0" y="739" text-anchor="middle" font-family="Inter Tight, sans-serif" font-size="13" font-weight="700" fill="#0A0A0B">EmailVerificationToken</text>
<line x1="460" y1="748" x2="740" y2="748" stroke="#0A0A0B" stroke-width="1"/>
<text x="468" y="766" font-family="JetBrains Mono, Menlo, monospace" font-size="10.5" fill="#0A0A0B">- id : UUID</text>
<text x="468" y="780" font-family="JetBrains Mono, Menlo, monospace" font-size="10.5" fill="#0A0A0B">- token : String</text>
<text x="468" y="794" font-family="JetBrains Mono, Menlo, monospace" font-size="10.5" fill="#0A0A0B">- expiresAt : Instant</text>
<text x="468" y="808" font-family="JetBrains Mono, Menlo, monospace" font-size="10.5" fill="#0A0A0B">- usedAt : Instant</text>
<line x1="460" y1="812" x2="740" y2="812" stroke="#0A0A0B" stroke-width="1"/>
<text x="468" y="830" font-family="JetBrains Mono, Menlo, monospace" font-size="10.5" fill="#0A0A0B">+ isValid(now) : boolean</text>
<text x="468" y="844" font-family="JetBrains Mono, Menlo, monospace" font-size="10.5" fill="#0A0A0B">+ consume()</text>
</g>
<g>
<rect x="780" y="360" width="300" height="184" fill="#FFFFFF" stroke="#0A0A0B" stroke-width="1.4"/>
<rect x="780" y="360" width="300" height="40" fill="#EDE9E0" stroke="#0A0A0B" stroke-width="1.4"/>
<text x="930.0" y="376" text-anchor="middle" font-family="Inter Tight, sans-serif" font-size="10" font-style="italic" fill="#9A968E">«value object»</text>
<text x="930.0" y="393" text-anchor="middle" font-family="Inter Tight, sans-serif" font-size="13" font-weight="700" fill="#0A0A0B">VerificationToken</text>
<line x1="780" y1="400" x2="1080" y2="400" stroke="#0A0A0B" stroke-width="1"/>
<text x="788" y="418" font-family="JetBrains Mono, Menlo, monospace" font-size="10.5" fill="#0A0A0B">- value : String</text>
<text x="788" y="432" font-family="JetBrains Mono, Menlo, monospace" font-size="10.5" fill="#0A0A0B">- vehicleRef : String</text>
<text x="788" y="446" font-family="JetBrains Mono, Menlo, monospace" font-size="10.5" fill="#0A0A0B">- teslaModel : TeslaModel</text>
<text x="788" y="460" font-family="JetBrains Mono, Menlo, monospace" font-size="10.5" fill="#0A0A0B">- origin : VehicleOrigin</text>
<text x="788" y="474" font-family="JetBrains Mono, Menlo, monospace" font-size="10.5" fill="#0A0A0B">- issuedAt : Instant</text>
<text x="788" y="488" font-family="JetBrains Mono, Menlo, monospace" font-size="10.5" fill="#0A0A0B">- expiresAt : Instant</text>
<text x="788" y="502" font-family="JetBrains Mono, Menlo, monospace" font-size="10.5" fill="#0A0A0B">- consumed : boolean</text>
<line x1="780" y1="506" x2="1080" y2="506" stroke="#0A0A0B" stroke-width="1"/>
<text x="788" y="524" font-family="JetBrains Mono, Menlo, monospace" font-size="10.5" fill="#0A0A0B">+ isUsable(now) : boolean</text>
</g>
<g>
  <rect x="1120" y="320" width="560" height="300" rx="6" ry="6" fill="#F4F1EC" stroke="#0A0A0B" stroke-width="1.4"/>
  <rect x="1120" y="320" width="200" height="26" rx="6" ry="6" fill="#EDE9E0" stroke="#0A0A0B" stroke-width="1.4"/>
  <text x="1134" y="337" font-family="Inter Tight, sans-serif" font-size="12" font-weight="700" fill="#0A0A0B">Domaine :: Véhicules</text>
</g>
<g>
<rect x="1160" y="360" width="240" height="156" fill="#FFFFFF" stroke="#0A0A0B" stroke-width="1.4"/>
<rect x="1160" y="360" width="240" height="28" fill="#EDE9E0" stroke="#0A0A0B" stroke-width="1.4"/>
<text x="1280.0" y="379" text-anchor="middle" font-family="Inter Tight, sans-serif" font-size="13" font-weight="700" fill="#0A0A0B">ErpTeslaLocal</text>
<line x1="1160" y1="388" x2="1400" y2="388" stroke="#0A0A0B" stroke-width="1"/>
<text x="1168" y="406" font-family="JetBrains Mono, Menlo, monospace" font-size="10.5" fill="#0A0A0B">- id : UUID</text>
<text x="1168" y="420" font-family="JetBrains Mono, Menlo, monospace" font-size="10.5" fill="#0A0A0B">- chassisNumber : String</text>
<text x="1168" y="434" font-family="JetBrains Mono, Menlo, monospace" font-size="10.5" fill="#0A0A0B">- plateNumber : String</text>
<text x="1168" y="448" font-family="JetBrains Mono, Menlo, monospace" font-size="10.5" fill="#0A0A0B">- plateType : PlateType</text>
<text x="1168" y="462" font-family="JetBrains Mono, Menlo, monospace" font-size="10.5" fill="#0A0A0B">- teslaModel : TeslaModel</text>
<text x="1168" y="476" font-family="JetBrains Mono, Menlo, monospace" font-size="10.5" fill="#0A0A0B">- registeredAt : Instant</text>
<line x1="1160" y1="480" x2="1400" y2="480" stroke="#0A0A0B" stroke-width="1"/>
<text x="1168" y="498" font-family="JetBrains Mono, Menlo, monospace" font-size="10.5" fill="#0A0A0B">+ matches(vin, plate, type)</text>
</g>
<g>
<rect x="1420" y="360" width="240" height="204" fill="#FFFFFF" stroke="#0A0A0B" stroke-width="1.4"/>
<rect x="1420" y="360" width="240" height="28" fill="#EDE9E0" stroke="#0A0A0B" stroke-width="1.4"/>
<text x="1540.0" y="379" text-anchor="middle" font-family="Inter Tight, sans-serif" font-size="13" font-weight="700" fill="#0A0A0B">ErpTeslaForeign</text>
<line x1="1420" y1="388" x2="1660" y2="388" stroke="#0A0A0B" stroke-width="1"/>
<text x="1428" y="406" font-family="JetBrains Mono, Menlo, monospace" font-size="10.5" fill="#0A0A0B">- id : UUID</text>
<text x="1428" y="420" font-family="JetBrains Mono, Menlo, monospace" font-size="10.5" fill="#0A0A0B">- chassisNumber : String</text>
<text x="1428" y="434" font-family="JetBrains Mono, Menlo, monospace" font-size="10.5" fill="#0A0A0B">- teslaModel : TeslaModel</text>
<text x="1428" y="448" font-family="JetBrains Mono, Menlo, monospace" font-size="10.5" fill="#0A0A0B">- carteGrisePath : String</text>
<text x="1428" y="462" font-family="JetBrains Mono, Menlo, monospace" font-size="10.5" fill="#0A0A0B">- reviewStatus : ReviewStatus</text>
<text x="1428" y="476" font-family="JetBrains Mono, Menlo, monospace" font-size="10.5" fill="#0A0A0B">- submittedAt / reviewedAt</text>
<text x="1428" y="490" font-family="JetBrains Mono, Menlo, monospace" font-size="10.5" fill="#0A0A0B">- reviewerId : UUID</text>
<text x="1428" y="504" font-family="JetBrains Mono, Menlo, monospace" font-size="10.5" fill="#0A0A0B">- rejectionReason : String</text>
<line x1="1420" y1="508" x2="1660" y2="508" stroke="#0A0A0B" stroke-width="1"/>
<text x="1428" y="526" font-family="JetBrains Mono, Menlo, monospace" font-size="10.5" fill="#0A0A0B">+ approve(reviewer)</text>
<text x="1428" y="540" font-family="JetBrains Mono, Menlo, monospace" font-size="10.5" fill="#0A0A0B">+ reject(reviewer, reason)</text>
</g>
<g>
  <rect x="1120" y="650" width="560" height="210" rx="6" ry="6" fill="#F4F1EC" stroke="#0A0A0B" stroke-width="1.4"/>
  <rect x="1120" y="650" width="216" height="26" rx="6" ry="6" fill="#EDE9E0" stroke="#0A0A0B" stroke-width="1.4"/>
  <text x="1134" y="667" font-family="Inter Tight, sans-serif" font-size="12" font-weight="700" fill="#0A0A0B">Domaine :: Réseau de bornes</text>
</g>
<g>
<rect x="1160" y="690" width="240" height="140" fill="#FFFFFF" stroke="#0A0A0B" stroke-width="1.4"/>
<rect x="1160" y="690" width="240" height="28" fill="#EDE9E0" stroke="#0A0A0B" stroke-width="1.4"/>
<text x="1280.0" y="709" text-anchor="middle" font-family="Inter Tight, sans-serif" font-size="13" font-weight="700" fill="#0A0A0B">Station</text>
<line x1="1160" y1="718" x2="1400" y2="718" stroke="#0A0A0B" stroke-width="1"/>
<text x="1168" y="736" font-family="JetBrains Mono, Menlo, monospace" font-size="10.5" fill="#0A0A0B">- id : UUID</text>
<text x="1168" y="750" font-family="JetBrains Mono, Menlo, monospace" font-size="10.5" fill="#0A0A0B">- name / wilaya / address</text>
<text x="1168" y="764" font-family="JetBrains Mono, Menlo, monospace" font-size="10.5" fill="#0A0A0B">- latitude : double</text>
<text x="1168" y="778" font-family="JetBrains Mono, Menlo, monospace" font-size="10.5" fill="#0A0A0B">- longitude : double</text>
<line x1="1160" y1="782" x2="1400" y2="782" stroke="#0A0A0B" stroke-width="1"/>
<text x="1168" y="800" font-family="JetBrains Mono, Menlo, monospace" font-size="10.5" fill="#0A0A0B">+ distanceTo(lat, lng)</text>
<text x="1168" y="814" font-family="JetBrains Mono, Menlo, monospace" font-size="10.5" fill="#0A0A0B">+ hasPortFor(model)</text>
</g>
<g>
<rect x="1420" y="690" width="240" height="124" fill="#FFFFFF" stroke="#0A0A0B" stroke-width="1.4"/>
<rect x="1420" y="690" width="240" height="28" fill="#EDE9E0" stroke="#0A0A0B" stroke-width="1.4"/>
<text x="1540.0" y="709" text-anchor="middle" font-family="Inter Tight, sans-serif" font-size="13" font-weight="700" fill="#0A0A0B">ChargingPort</text>
<line x1="1420" y1="718" x2="1660" y2="718" stroke="#0A0A0B" stroke-width="1"/>
<text x="1428" y="736" font-family="JetBrains Mono, Menlo, monospace" font-size="10.5" fill="#0A0A0B">- id : UUID</text>
<text x="1428" y="750" font-family="JetBrains Mono, Menlo, monospace" font-size="10.5" fill="#0A0A0B">- type : ChargingPortType</text>
<text x="1428" y="764" font-family="JetBrains Mono, Menlo, monospace" font-size="10.5" fill="#0A0A0B">- powerKw : int</text>
<text x="1428" y="778" font-family="JetBrains Mono, Menlo, monospace" font-size="10.5" fill="#0A0A0B">- status : PortStatus</text>
<line x1="1420" y1="782" x2="1660" y2="782" stroke="#0A0A0B" stroke-width="1"/>
<text x="1428" y="800" font-family="JetBrains Mono, Menlo, monospace" font-size="10.5" fill="#0A0A0B">+ isAvailableFor(model)</text>
</g>
<g>
  <rect x="1700" y="320" width="460" height="300" rx="6" ry="6" fill="#F4F1EC" stroke="#0A0A0B" stroke-width="1.4"/>
  <rect x="1700" y="320" width="240" height="26" rx="6" ry="6" fill="#EDE9E0" stroke="#0A0A0B" stroke-width="1.4"/>
  <text x="1714" y="337" font-family="Inter Tight, sans-serif" font-size="12" font-weight="700" fill="#0A0A0B">Transverse :: Sécurité &amp; Audit</text>
</g>
<g>
<rect x="1730" y="360" width="200" height="120" fill="#FFFFFF" stroke="#0A0A0B" stroke-width="1.4"/>
<rect x="1730" y="360" width="200" height="40" fill="#EDE9E0" stroke="#0A0A0B" stroke-width="1.4"/>
<text x="1830.0" y="376" text-anchor="middle" font-family="Inter Tight, sans-serif" font-size="10" font-style="italic" fill="#9A968E">«value object»</text>
<text x="1830.0" y="393" text-anchor="middle" font-family="Inter Tight, sans-serif" font-size="13" font-weight="700" fill="#0A0A0B">RateLimitBucket</text>
<line x1="1730" y1="400" x2="1930" y2="400" stroke="#0A0A0B" stroke-width="1"/>
<text x="1738" y="418" font-family="JetBrains Mono, Menlo, monospace" font-size="10.5" fill="#0A0A0B">- key : String</text>
<text x="1738" y="432" font-family="JetBrains Mono, Menlo, monospace" font-size="10.5" fill="#0A0A0B">- count : int</text>
<text x="1738" y="446" font-family="JetBrains Mono, Menlo, monospace" font-size="10.5" fill="#0A0A0B">- resetAt : Instant</text>
<line x1="1730" y1="450" x2="1930" y2="450" stroke="#0A0A0B" stroke-width="1"/>
<text x="1738" y="468" font-family="JetBrains Mono, Menlo, monospace" font-size="10.5" fill="#0A0A0B">+ allow() : boolean</text>
</g>
<g>
<rect x="1940" y="360" width="200" height="132" fill="#FFFFFF" stroke="#0A0A0B" stroke-width="1.4"/>
<rect x="1940" y="360" width="200" height="28" fill="#EDE9E0" stroke="#0A0A0B" stroke-width="1.4"/>
<text x="2040.0" y="379" text-anchor="middle" font-family="Inter Tight, sans-serif" font-size="13" font-weight="700" fill="#0A0A0B">AuditEvent</text>
<line x1="1940" y1="388" x2="2140" y2="388" stroke="#0A0A0B" stroke-width="1"/>
<text x="1948" y="406" font-family="JetBrains Mono, Menlo, monospace" font-size="10.5" fill="#0A0A0B">- id : UUID</text>
<text x="1948" y="420" font-family="JetBrains Mono, Menlo, monospace" font-size="10.5" fill="#0A0A0B">- timestamp : Instant</text>
<text x="1948" y="434" font-family="JetBrains Mono, Menlo, monospace" font-size="10.5" fill="#0A0A0B">- actor : String</text>
<text x="1948" y="448" font-family="JetBrains Mono, Menlo, monospace" font-size="10.5" fill="#0A0A0B">- action : String</text>
<text x="1948" y="462" font-family="JetBrains Mono, Menlo, monospace" font-size="10.5" fill="#0A0A0B">- ip : String</text>
<text x="1948" y="476" font-family="JetBrains Mono, Menlo, monospace" font-size="10.5" fill="#0A0A0B">- details : String</text>
</g>
<g>
  <rect x="40" y="890" width="2120" height="480" rx="6" ry="6" fill="#F4F1EC" stroke="#0A0A0B" stroke-width="1.4"/>
  <rect x="40" y="890" width="200" height="26" rx="6" ry="6" fill="#EDE9E0" stroke="#0A0A0B" stroke-width="1.4"/>
  <text x="54" y="907" font-family="Inter Tight, sans-serif" font-size="12" font-weight="700" fill="#0A0A0B">Services du domaine</text>
</g>
<g>
<rect x="80" y="930" width="260" height="96" fill="#FFFFFF" stroke="#0A0A0B" stroke-width="1.4"/>
<rect x="80" y="930" width="260" height="40" fill="#EDE9E0" stroke="#0A0A0B" stroke-width="1.4"/>
<text x="210.0" y="946" text-anchor="middle" font-family="Inter Tight, sans-serif" font-size="10" font-style="italic" fill="#9A968E">«service»</text>
<text x="210.0" y="963" text-anchor="middle" font-family="Inter Tight, sans-serif" font-size="13" font-weight="700" fill="#0A0A0B">AuthService</text>
<line x1="80" y1="970" x2="340" y2="970" stroke="#0A0A0B" stroke-width="1"/>
<text x="88" y="988" font-family="JetBrains Mono, Menlo, monospace" font-size="10.5" fill="#0A0A0B">+ login(cmd) : LoginResult</text>
<text x="88" y="1002" font-family="JetBrains Mono, Menlo, monospace" font-size="10.5" fill="#0A0A0B">+ refresh(token) : TokenPair</text>
<text x="88" y="1016" font-family="JetBrains Mono, Menlo, monospace" font-size="10.5" fill="#0A0A0B">+ logout(userId)</text>
</g>
<g>
<rect x="392" y="930" width="260" height="64" fill="#FFFFFF" stroke="#0A0A0B" stroke-width="1.4"/>
<rect x="392" y="930" width="260" height="40" fill="#EDE9E0" stroke="#0A0A0B" stroke-width="1.4"/>
<text x="522.0" y="946" text-anchor="middle" font-family="Inter Tight, sans-serif" font-size="10" font-style="italic" fill="#9A968E">«service»</text>
<text x="522.0" y="963" text-anchor="middle" font-family="Inter Tight, sans-serif" font-size="13" font-weight="700" fill="#0A0A0B">UserRegistrationService</text>
<line x1="392" y1="970" x2="652" y2="970" stroke="#0A0A0B" stroke-width="1"/>
<text x="400" y="988" font-family="JetBrains Mono, Menlo, monospace" font-size="10.5" fill="#0A0A0B">+ register(cmd) : User</text>
</g>
<g>
<rect x="704" y="930" width="260" height="80" fill="#FFFFFF" stroke="#0A0A0B" stroke-width="1.4"/>
<rect x="704" y="930" width="260" height="40" fill="#EDE9E0" stroke="#0A0A0B" stroke-width="1.4"/>
<text x="834.0" y="946" text-anchor="middle" font-family="Inter Tight, sans-serif" font-size="10" font-style="italic" fill="#9A968E">«service»</text>
<text x="834.0" y="963" text-anchor="middle" font-family="Inter Tight, sans-serif" font-size="13" font-weight="700" fill="#0A0A0B">VehicleVerificationService</text>
<line x1="704" y1="970" x2="964" y2="970" stroke="#0A0A0B" stroke-width="1"/>
<text x="712" y="988" font-family="JetBrains Mono, Menlo, monospace" font-size="10.5" fill="#0A0A0B">+ verifyLocal(cmd) : VerificationToken</text>
<text x="712" y="1002" font-family="JetBrains Mono, Menlo, monospace" font-size="10.5" fill="#0A0A0B">+ verifyForeign(cmd) : VerificationToken</text>
</g>
<g>
<rect x="1016" y="930" width="260" height="96" fill="#FFFFFF" stroke="#0A0A0B" stroke-width="1.4"/>
<rect x="1016" y="930" width="260" height="40" fill="#EDE9E0" stroke="#0A0A0B" stroke-width="1.4"/>
<text x="1146.0" y="946" text-anchor="middle" font-family="Inter Tight, sans-serif" font-size="10" font-style="italic" fill="#9A968E">«service»</text>
<text x="1146.0" y="963" text-anchor="middle" font-family="Inter Tight, sans-serif" font-size="13" font-weight="700" fill="#0A0A0B">OtpService</text>
<line x1="1016" y1="970" x2="1276" y2="970" stroke="#0A0A0B" stroke-width="1"/>
<text x="1024" y="988" font-family="JetBrains Mono, Menlo, monospace" font-size="10.5" fill="#0A0A0B">+ issue(userId) : OtpCode</text>
<text x="1024" y="1002" font-family="JetBrains Mono, Menlo, monospace" font-size="10.5" fill="#0A0A0B">+ verify(userId, raw) : boolean</text>
<text x="1024" y="1016" font-family="JetBrains Mono, Menlo, monospace" font-size="10.5" fill="#0A0A0B">+ resend(userId)</text>
</g>
<g>
<rect x="80" y="1150" width="260" height="80" fill="#FFFFFF" stroke="#0A0A0B" stroke-width="1.4"/>
<rect x="80" y="1150" width="260" height="40" fill="#EDE9E0" stroke="#0A0A0B" stroke-width="1.4"/>
<text x="210.0" y="1166" text-anchor="middle" font-family="Inter Tight, sans-serif" font-size="10" font-style="italic" fill="#9A968E">«service»</text>
<text x="210.0" y="1183" text-anchor="middle" font-family="Inter Tight, sans-serif" font-size="13" font-weight="700" fill="#0A0A0B">EmailVerificationService</text>
<line x1="80" y1="1190" x2="340" y2="1190" stroke="#0A0A0B" stroke-width="1"/>
<text x="88" y="1208" font-family="JetBrains Mono, Menlo, monospace" font-size="10.5" fill="#0A0A0B">+ dispatch(user)</text>
<text x="88" y="1222" font-family="JetBrains Mono, Menlo, monospace" font-size="10.5" fill="#0A0A0B">+ confirm(token)</text>
</g>
<g>
<rect x="392" y="1150" width="260" height="80" fill="#FFFFFF" stroke="#0A0A0B" stroke-width="1.4"/>
<rect x="392" y="1150" width="260" height="40" fill="#EDE9E0" stroke="#0A0A0B" stroke-width="1.4"/>
<text x="522.0" y="1166" text-anchor="middle" font-family="Inter Tight, sans-serif" font-size="10" font-style="italic" fill="#9A968E">«service»</text>
<text x="522.0" y="1183" text-anchor="middle" font-family="Inter Tight, sans-serif" font-size="13" font-weight="700" fill="#0A0A0B">LockService</text>
<line x1="392" y1="1190" x2="652" y2="1190" stroke="#0A0A0B" stroke-width="1"/>
<text x="400" y="1208" font-family="JetBrains Mono, Menlo, monospace" font-size="10.5" fill="#0A0A0B">+ registerFailure(userId)</text>
<text x="400" y="1222" font-family="JetBrains Mono, Menlo, monospace" font-size="10.5" fill="#0A0A0B">+ isLocked(userId) : boolean</text>
</g>
<g>
<rect x="704" y="1150" width="260" height="64" fill="#FFFFFF" stroke="#0A0A0B" stroke-width="1.4"/>
<rect x="704" y="1150" width="260" height="40" fill="#EDE9E0" stroke="#0A0A0B" stroke-width="1.4"/>
<text x="834.0" y="1166" text-anchor="middle" font-family="Inter Tight, sans-serif" font-size="10" font-style="italic" fill="#9A968E">«service»</text>
<text x="834.0" y="1183" text-anchor="middle" font-family="Inter Tight, sans-serif" font-size="13" font-weight="700" fill="#0A0A0B">RateLimiterService</text>
<line x1="704" y1="1190" x2="964" y2="1190" stroke="#0A0A0B" stroke-width="1"/>
<text x="712" y="1208" font-family="JetBrains Mono, Menlo, monospace" font-size="10.5" fill="#0A0A0B">+ allow(key) : boolean</text>
</g>
<g>
<rect x="1016" y="1150" width="260" height="80" fill="#FFFFFF" stroke="#0A0A0B" stroke-width="1.4"/>
<rect x="1016" y="1150" width="260" height="40" fill="#EDE9E0" stroke="#0A0A0B" stroke-width="1.4"/>
<text x="1146.0" y="1166" text-anchor="middle" font-family="Inter Tight, sans-serif" font-size="10" font-style="italic" fill="#9A968E">«service»</text>
<text x="1146.0" y="1183" text-anchor="middle" font-family="Inter Tight, sans-serif" font-size="13" font-weight="700" fill="#0A0A0B">JwtService</text>
<line x1="1016" y1="1190" x2="1276" y2="1190" stroke="#0A0A0B" stroke-width="1"/>
<text x="1024" y="1208" font-family="JetBrains Mono, Menlo, monospace" font-size="10.5" fill="#0A0A0B">+ sign(user) : String</text>
<text x="1024" y="1222" font-family="JetBrains Mono, Menlo, monospace" font-size="10.5" fill="#0A0A0B">+ parse(token) : Claims</text>
</g>
<line x1="400" y1="410" x2="460" y2="410" stroke="#0A0A0B" stroke-width="1.2" />
<polygon points="400,410 409.6,405.2 412.0,410.0 409.6,414.8" fill="#0A0A0B" stroke="#0A0A0B" stroke-width="1.2"/>
<polygon points="460,410 453.69321792468304,413.03718617382293 453.69321792468304,406.96281382617707" fill="#0A0A0B"/>
<rect x="414.0" y="401.0" width="32" height="14" rx="3" fill="#F4F1EC" stroke="none"/>
<text x="430.0" y="412.0" text-anchor="middle" font-family="Inter Tight, sans-serif" font-size="10" font-style="italic" fill="#0A0A0B">émet</text>
<text x="410.0" y="422.0" font-family="Inter Tight, sans-serif" font-size="10" fill="#9A968E">1</text>
<text x="445.0" y="406.0" font-family="Inter Tight, sans-serif" font-size="10" fill="#9A968E">0..*</text>
<line x1="400" y1="580" x2="460" y2="590" stroke="#0A0A0B" stroke-width="1.2" />
<polygon points="400,580 410.25849680785427,576.8435394437371 411.83672708598573,581.9727878476643 408.68026652972287,586.3129211125257" fill="#0A0A0B" stroke="#0A0A0B" stroke-width="1.2"/>
<polygon points="460,590 453.2797181507396,591.9590334010683 454.2783388132082,585.9673094262564" fill="#0A0A0B"/>
<rect x="408.0" y="576.0" width="44" height="14" rx="3" fill="#F4F1EC" stroke="none"/>
<text x="430.0" y="587.0" text-anchor="middle" font-family="Inter Tight, sans-serif" font-size="10" font-style="italic" fill="#0A0A0B">reçoit</text>
<text x="409.86393923832145" y="593.6439898730536" font-family="Inter Tight, sans-serif" font-size="10" fill="#9A968E">1</text>
<text x="445.2040911425178" y="583.5340151904196" font-family="Inter Tight, sans-serif" font-size="10" fill="#9A968E">0..*</text>
<line x1="400" y1="700" x2="460" y2="760" stroke="#0A0A0B" stroke-width="1.2" />
<polygon points="400,700 410.18233764908626,703.3941125496954 408.4852813742386,708.4852813742385 403.3941125496954,710.1823376490863" fill="#FFFFFF" stroke="#0A0A0B" stroke-width="1.2"/>
<polygon points="460,760 453.39281668784145,757.6880465663138 457.68804656631386,753.3928166878414" fill="#0A0A0B"/>
<rect x="402.0" y="721.0" width="56" height="14" rx="3" fill="#F4F1EC" stroke="none"/>
<text x="430.0" y="732.0" text-anchor="middle" font-family="Inter Tight, sans-serif" font-size="10" font-style="italic" fill="#0A0A0B">confirme</text>
<text x="407.0710678118655" y="719.0710678118654" font-family="Inter Tight, sans-serif" font-size="10" fill="#9A968E">1</text>
<text x="449.3933982822018" y="745.3933982822018" font-family="Inter Tight, sans-serif" font-size="10" fill="#9A968E">0..1</text>
<line x1="240" y1="360" x2="150" y2="230" stroke="#0A0A0B" stroke-width="1.2" />
<polygon points="150,230 156.08703404826417,233.4565902990191 151.0927325348929,236.91418365442996" fill="#0A0A0B"/>
<rect x="179.0" y="286.0" width="32" height="14" rx="3" fill="#F4F1EC" stroke="none"/>
<text x="195.0" y="297.0" text-anchor="middle" font-family="Inter Tight, sans-serif" font-size="10" font-style="italic" fill="#0A0A0B">rôle</text>
<text x="158.53814968245462" y="238.3328828746567" font-family="Inter Tight, sans-serif" font-size="10" fill="#9A968E">1</text>
<line x1="930" y1="360" x2="520" y2="230" stroke="#0A0A0B" stroke-width="1.2" stroke-dasharray="5 4"/>
<polyline points="526.929788774429,229.01104724996657 520,230 525.093847024541,234.8013250765361" fill="none" stroke="#0A0A0B" stroke-width="1.2"/>
<line x1="900" y1="360" x2="700" y2="230" stroke="#0A0A0B" stroke-width="1.2" stroke-dasharray="5 4"/>
<polyline points="706.9431122537717,230.89061340183332 700,230 703.6326500871259,235.98363211975007" fill="none" stroke="#0A0A0B" stroke-width="1.2"/>
<line x1="400" y1="480" x2="780" y2="420" stroke="#0A0A0B" stroke-width="1.2" stroke-dasharray="5 4"/>
<polyline points="774.2440816073868,423.98364198411167 780,420 773.2967068638146,417.98360194148813" fill="none" stroke="#0A0A0B" stroke-width="1.2"/>
<rect x="514.0" y="441.0" width="152" height="14" rx="3" fill="#F4F1EC" stroke="none"/>
<text x="590.0" y="452.0" text-anchor="middle" font-family="Inter Tight, sans-serif" font-size="10" font-style="italic" fill="#0A0A0B">consomme à l'inscription</text>
<text x="409.8776296532907" y="490.4403742652699" font-family="Inter Tight, sans-serif" font-size="10" fill="#9A968E">1</text>
<text x="765.1835555200639" y="418.3394386020952" font-family="Inter Tight, sans-serif" font-size="10" fill="#9A968E">1</text>
<line x1="1280" y1="360" x2="380" y2="230" stroke="#0A0A0B" stroke-width="1.2" stroke-dasharray="5 4"/>
<polyline points="386.676199512112,227.89563309414078 380,230 385.80780260864066,233.9076116566346" fill="none" stroke="#0A0A0B" stroke-width="1.2"/>
<line x1="1280" y1="360" x2="570" y2="230" stroke="#0A0A0B" stroke-width="1.2" stroke-dasharray="5 4"/>
<polyline points="576.7506611486353,228.1483590908857 570,230 575.6566395389494,234.12340018993967" fill="none" stroke="#0A0A0B" stroke-width="1.2"/>
<line x1="1540" y1="560" x2="420" y2="360" stroke="#0A0A0B" stroke-width="1.2" stroke-dasharray="5 4"/>
<polyline points="426.74247908435467,358.11878342633287 420,360 425.67466129097454,364.0985630692616" fill="none" stroke="#0A0A0B" stroke-width="1.2"/>
<rect x="946.0" y="451.0" width="68" height="14" rx="3" fill="#F4F1EC" stroke="none"/>
<text x="980.0" y="462.0" text-anchor="middle" font-family="Inter Tight, sans-serif" font-size="10" font-style="italic" fill="#0A0A0B">révisé par</text>
<line x1="1400" y1="760" x2="1420" y2="760" stroke="#0A0A0B" stroke-width="1.2" />
<polygon points="1400,760 1409.6,755.2 1412.0,760.0 1409.6,764.8" fill="#0A0A0B" stroke="#0A0A0B" stroke-width="1.2"/>
<polygon points="1420,760 1413.693217924683,763.0371861738229 1413.693217924683,756.9628138261771" fill="#0A0A0B"/>
<rect x="1382.0" y="751.0" width="56" height="14" rx="3" fill="#F4F1EC" stroke="none"/>
<text x="1410.0" y="762.0" text-anchor="middle" font-family="Inter Tight, sans-serif" font-size="10" font-style="italic" fill="#0A0A0B">contient</text>
<text x="1410.0" y="772.0" font-family="Inter Tight, sans-serif" font-size="10" fill="#9A968E">1</text>
<text x="1405.0" y="756.0" font-family="Inter Tight, sans-serif" font-size="10" fill="#9A968E">1..*</text>
<line x1="1540" y1="690" x2="1075" y2="230" stroke="#0A0A0B" stroke-width="1.2" stroke-dasharray="5 4"/>
<polyline points="1081.6195836516058,232.2762056759864 1075,230 1077.3476336412684,236.59458992556662" fill="none" stroke="#0A0A0B" stroke-width="1.2"/>
<line x1="1540" y1="690" x2="1240" y2="230" stroke="#0A0A0B" stroke-width="1.2" stroke-dasharray="5 4"/>
<polyline points="1245.9891711704422,233.62351054795525 1240,230 1240.9012125229108,236.94174444851933" fill="none" stroke="#0A0A0B" stroke-width="1.2"/>
<line x1="200" y1="930" x2="240" y2="610" stroke="#0A0A0B" stroke-width="1.2" stroke-dasharray="5 4"/>
<polyline points="242.2314726069212,616.6347969075595 240,610 236.20400731143098,615.8813637456232" fill="none" stroke="#0A0A0B" stroke-width="1.2"/>
<line x1="240" y1="930" x2="600" y2="470" stroke="#0A0A0B" stroke-width="1.2" stroke-dasharray="5 4"/>
<polyline points="598.5048774033816,476.8384653556979 600,470 593.7212788016283,473.09477949345626" fill="none" stroke="#0A0A0B" stroke-width="1.2"/>
<line x1="502" y1="930" x2="300" y2="610" stroke="#0A0A0B" stroke-width="1.2" stroke-dasharray="5 4"/>
<polyline points="305.93481182568433,613.711874000248 300,610 300.7982346969164,616.9543383127829" fill="none" stroke="#0A0A0B" stroke-width="1.2"/>
<line x1="502" y1="930" x2="930" y2="540" stroke="#0A0A0B" stroke-width="1.2" stroke-dasharray="5 4"/>
<polyline points="927.3839326750204,546.4927799709503 930,540 923.2926489118726,542.0028583026752" fill="none" stroke="#0A0A0B" stroke-width="1.2"/>
<line x1="794" y1="930" x2="1280" y2="540" stroke="#0A0A0B" stroke-width="1.2" stroke-dasharray="5 4"/>
<polyline points="1276.9820400794729,546.3160049016836 1280,540 1273.1802812915741,541.5784285659946" fill="none" stroke="#0A0A0B" stroke-width="1.2"/>
<line x1="860" y1="930" x2="1540" y2="540" stroke="#0A0A0B" stroke-width="1.2" stroke-dasharray="5 4"/>
<polyline points="1536.040174501715,545.7723289947068 1540,540 1533.0181006494545,540.5030720215343" fill="none" stroke="#0A0A0B" stroke-width="1.2"/>
<line x1="1086" y1="930" x2="600" y2="680" stroke="#0A0A0B" stroke-width="1.2" stroke-dasharray="5 4"/>
<polyline points="606.9975783435032,680.1841122661209 600,680 604.2189739689198,685.5857191703107" fill="none" stroke="#0A0A0B" stroke-width="1.2"/>
<line x1="210" y1="1150" x2="600" y2="830" stroke="#0A0A0B" stroke-width="1.2" stroke-dasharray="5 4"/>
<polyline points="597.0509323669503,836.3484643887871 600,830 593.1978570813209,831.6525288844264" fill="none" stroke="#0A0A0B" stroke-width="1.2"/>
<line x1="240" y1="1125" x2="1940" y2="460" stroke="#0A0A0B" stroke-width="1.2" stroke-dasharray="5 4"/>
<polyline points="1935.2330348795617,465.1260163422024 1940,460 1933.0201649056112,459.46905550653884" fill="none" stroke="#0A0A0B" stroke-width="1.2"/>
<rect x="1056.0" y="783.5" width="68" height="14" rx="3" fill="#F4F1EC" stroke="none"/>
<text x="1090.0" y="794.5" text-anchor="middle" font-family="Inter Tight, sans-serif" font-size="10" font-style="italic" fill="#0A0A0B">journalise</text>
<g>
  <rect x="1730" y="1340" width="450" height="120" rx="8" fill="#FFF7D6" stroke="#8A7400" stroke-width="1.4"/>
  <text x="1740" y="1362" font-family="Inter Tight, sans-serif" font-size="12" font-weight="700" fill="#0A0A0B">Invariants de l'agrégat User</text>
  <text x="1740" y="1382" font-family="Inter Tight, sans-serif" font-size="11" fill="#0A0A0B">• email unique (case-insensitive)</text>
  <text x="1740" y="1400" font-family="Inter Tight, sans-serif" font-size="11" fill="#0A0A0B">• passwordHash jamais en clair (BCrypt 12 rounds)</text>
  <text x="1740" y="1418" font-family="Inter Tight, sans-serif" font-size="11" fill="#0A0A0B">• lockedUntil &gt; now ⟹ isLocked() == true</text>
  <text x="1740" y="1436" font-family="Inter Tight, sans-serif" font-size="11" fill="#0A0A0B">• refresh token stocké hashé SHA-256 — rotation systématique</text>
</g>
<g>
  <rect x="40" y="1340" width="500" height="150" rx="8" fill="#FFFFFF" stroke="#0A0A0B" stroke-width="1.2"/>
  <text x="54" y="1362" font-family="Inter Tight, sans-serif" font-size="12" font-weight="700" fill="#0A0A0B">Légende — notation UML</text>
  <circle cx="68" cy="1388" r="6" fill="#E34E2C" stroke="#0A0A0B"/>
  <text x="78" y="1388" text-anchor="middle" font-size="9" font-weight="700" fill="#FFFFFF">A</text>
  <text x="88" y="1392" font-size="11" fill="#0A0A0B">racine d'agrégat (aggregate root)</text>
  <polygon points="56,1410 64,1416 72,1410 64,1404" fill="#0A0A0B" stroke="#0A0A0B"/>
  <line x1="72" y1="1410" x2="130" y2="1410" stroke="#0A0A0B" stroke-width="1.2"/>
  <text x="138" y="1413" font-size="11" fill="#0A0A0B">composition (cycle de vie partagé)</text>
  <polygon points="56,1428 64,1434 72,1428 64,1422" fill="#FFFFFF" stroke="#0A0A0B"/>
  <line x1="72" y1="1428" x2="130" y2="1428" stroke="#0A0A0B" stroke-width="1.2"/>
  <text x="138" y="1431" font-size="11" fill="#0A0A0B">agrégation (faible)</text>
  <line x1="56" y1="1446" x2="130" y2="1446" stroke="#0A0A0B" stroke-width="1.2" stroke-dasharray="5 4"/>
  <polyline points="124,1442 130,1446 124,1450" fill="none" stroke="#0A0A0B" stroke-width="1.2"/>
  <text x="138" y="1449" font-size="11" fill="#0A0A0B">dépendance «use»</text>
  <line x1="56" y1="1464" x2="130" y2="1464" stroke="#0A0A0B" stroke-width="1.2"/>
  <polygon points="124,1460 130,1464 124,1468" fill="#FFFFFF" stroke="#0A0A0B" stroke-width="1.2"/>
  <text x="138" y="1467" font-size="11" fill="#0A0A0B">généralisation / héritage</text>
  <text x="300" y="1388" font-family="Inter Tight, sans-serif" font-size="11" fill="#9A968E">Stéréotypes :</text>
  <text x="300" y="1405" font-family="Inter Tight, sans-serif" font-size="11" font-style="italic" fill="#9A968E">«enum» «value object» «service»</text>
  <text x="300" y="1422" font-family="Inter Tight, sans-serif" font-size="11" font-style="italic" fill="#9A968E">Multiplicités : 1 — 0..* — 0..1 — 1..*</text>
</g>
</svg>